<svg width="513" height="116" viewBox="0 0 513 116" fill="none" xmlns="http://www.w3.org/2000/svg">
<path d="M175.916 86.5712L154.251 27.3302H165.845L182.602 75.4847L199.443 27.3302H210.868L189.203 86.5712H175.916ZM231.98 87.5868C227.748 87.5868 223.996 86.6841 220.724 84.8786C217.452 83.0732 214.884 80.5343 213.023 77.2619C211.161 73.9896 210.23 70.2094 210.23 65.9215C210.23 61.5772 211.132 57.7124 212.938 54.3272C214.8 50.942 217.339 48.3185 220.555 46.4566C223.827 44.5383 227.664 43.5792 232.064 43.5792C236.183 43.5792 239.822 44.4819 242.982 46.2873C246.141 48.0928 248.595 50.5753 250.344 53.7348C252.15 56.8379 253.053 60.3077 253.053 64.1443C253.053 64.7649 253.024 65.4137 252.968 66.0908C252.968 66.7678 252.94 67.4731 252.883 68.2065H220.978C221.203 71.4789 222.332 74.046 224.363 75.9078C226.45 77.7697 228.961 78.7006 231.895 78.7006C234.095 78.7006 235.929 78.2211 237.396 77.2619C238.919 76.2464 240.048 74.9487 240.781 73.3689H251.783C250.993 76.0207 249.667 78.4467 247.805 80.6471C246 82.7911 243.743 84.4837 241.035 85.7249C238.383 86.9662 235.365 87.5868 231.98 87.5868ZM232.064 52.3807C229.413 52.3807 227.071 53.1424 225.04 54.6657C223.009 56.1326 221.711 58.3894 221.147 61.4361H242.051C241.881 58.6715 240.866 56.4712 239.004 54.835C237.142 53.1988 234.829 52.3807 232.064 52.3807ZM261.131 86.5712V44.5947H270.695L271.541 51.7037C272.839 49.2212 274.7 47.2465 277.126 45.7796C279.609 44.3126 282.515 43.5792 285.843 43.5792C291.034 43.5792 295.068 45.2154 297.945 48.4877C300.823 51.7601 302.262 56.5558 302.262 62.8748V86.5712H291.429V63.8904C291.429 60.2795 290.695 57.5149 289.229 55.5966C287.762 53.6784 285.477 52.7192 282.374 52.7192C279.327 52.7192 276.816 53.7912 274.841 55.9352C272.923 58.0791 271.964 61.0694 271.964 64.9059V86.5712H261.131ZM338.67 87.5868C332.689 87.5868 327.555 86.3173 323.267 83.7784C318.979 81.1831 315.679 77.6004 313.365 73.0304C311.052 68.404 309.895 63.0723 309.895 57.0354C309.895 50.9984 311.052 45.6667 313.365 41.0403C315.679 36.4138 318.979 32.803 323.267 30.2076C327.555 27.6123 332.689 26.3147 338.67 26.3147C345.779 26.3147 351.59 28.0919 356.103 31.6464C360.673 35.1444 363.523 40.0811 364.651 46.4566H352.718C351.985 43.2407 350.405 40.73 347.979 38.9245C345.609 37.0627 342.45 36.1317 338.5 36.1317C333.028 36.1317 328.74 37.9936 325.637 41.7173C322.534 45.441 320.982 50.5471 320.982 57.0354C320.982 63.5237 322.534 68.6297 325.637 72.3534C328.74 76.0207 333.028 77.8543 338.5 77.8543C342.45 77.8543 345.609 77.008 347.979 75.3154C350.405 73.5664 351.985 71.1686 352.718 68.1219H364.651C363.523 74.2152 360.673 78.9827 356.103 82.4244C351.59 85.866 345.779 87.5868 338.67 87.5868ZM388.695 87.5868C383.448 87.5868 379.386 85.9506 376.509 82.6782C373.688 79.4059 372.277 74.6102 372.277 68.2911V44.5947H383.025V67.2756C383.025 70.8865 383.759 73.651 385.225 75.5693C386.692 77.4876 389.006 78.4467 392.165 78.4467C395.155 78.4467 397.61 77.3748 399.528 75.2308C401.503 73.0868 402.49 70.0966 402.49 66.26V44.5947H413.323V86.5712H403.759L402.913 79.4623C401.615 81.9448 399.725 83.9195 397.243 85.3864C394.817 86.8533 391.968 87.5868 388.695 87.5868ZM423.411 86.5712V44.5947H433.059L434.074 52.4653C435.598 49.7572 437.657 47.6132 440.252 46.0335C442.904 44.3973 446.007 43.5792 449.561 43.5792V55.0042H446.515C444.145 55.0042 442.029 55.371 440.168 56.1044C438.306 56.8379 436.839 58.1073 435.767 59.9128C434.751 61.7182 434.243 64.2289 434.243 67.4448V86.5712H423.411ZM475.585 87.5868C471.354 87.5868 467.602 86.6841 464.329 84.8786C461.057 83.0732 458.49 80.5343 456.628 77.2619C454.766 73.9896 453.835 70.2094 453.835 65.9215C453.835 61.5772 454.738 57.7124 456.543 54.3272C458.405 50.942 460.944 48.3185 464.16 46.4566C467.432 44.5383 471.269 43.5792 475.67 43.5792C479.788 43.5792 483.428 44.4819 486.587 46.2873C489.747 48.0928 492.201 50.5753 493.95 53.7348C495.755 56.8379 496.658 60.3077 496.658 64.1443C496.658 64.7649 496.63 65.4137 496.573 66.0908C496.573 66.7678 496.545 67.4731 496.489 68.2065H464.583C464.809 71.4789 465.937 74.046 467.968 75.9078C470.056 77.7697 472.567 78.7006 475.501 78.7006C477.701 78.7006 479.535 78.2211 481.001 77.2619C482.525 76.2464 483.653 74.9487 484.387 73.3689H495.389C494.599 76.0207 493.273 78.4467 491.411 80.6471C489.606 82.7911 487.349 84.4837 484.641 85.7249C481.989 86.9662 478.97 87.5868 475.585 87.5868ZM475.67 52.3807C473.018 52.3807 470.677 53.1424 468.646 54.6657C466.614 56.1326 465.317 58.3894 464.753 61.4361H485.656C485.487 58.6715 484.471 56.4712 482.609 54.835C480.748 53.1988 478.434 52.3807 475.67 52.3807Z" fill="#356DFE"/>
<path d="M96.3453 1.16985C87.1366 2.98139 78.6073 8.26505 72.984 15.8131C67.3607 23.3612 64.7566 33.0605 65.8888 42.4201C67.7758 57.7427 78.8715 70.0838 85.2873 84.1233C89.4011 77.0658 93.477 70.0084 97.5907 62.9509C98.9871 60.5355 100.384 57.3653 98.6852 55.1009C96.1566 51.7797 93.628 48.3454 92.1561 44.4581C90.6842 40.5331 90.42 35.9665 92.458 32.3057C94.5337 28.4939 98.7984 26.2672 103.063 25.5124C107.328 24.7576 111.706 25.3237 116.008 25.8521C118.386 26.154 120.159 23.7763 121.367 21.7006C125.519 14.53 129.708 7.39702 133.859 0.226338C126.349 0.226338 118.839 0.226339 111.328 0.188599C106.309 0.226339 101.289 0.226338 96.3453 1.16985Z" fill="#356DFE"/>
<path d="M32.5263 2.94375C31.9602 1.9625 31.3563 0.94351 30.3373 0.415144C29.507 -5.84871e-07 28.5258 0 27.5823 0C18.5246 0 9.42913 0.0377398 0.371429 0.0377398C22.676 38.4952 44.9051 77.0282 67.0587 115.599C71.6253 107.636 76.2297 99.6724 80.7962 91.7092C81.2114 90.9544 81.6643 90.1618 81.6643 89.2938C81.6643 88.4258 81.2114 87.6332 80.7962 86.8784C64.7188 58.9128 48.6037 30.9094 32.5263 2.94375Z" fill="#356DFE"/>
</svg>
