<svg width="731" height="467" viewBox="0 0 731 467" fill="none" xmlns="http://www.w3.org/2000/svg">
<path fill-rule="evenodd" clip-rule="evenodd" d="M718.608 315V304.293H730V315H718.608ZM638.867 315V304.293H650.259V315H638.867ZM559.126 315V304.293H570.517V315H559.126ZM479.384 315V304.293H490.776V315H479.384ZM399.643 315V304.293H411.035V315H399.643ZM240.16 315V304.293H251.552V315H240.16ZM160.419 315V304.293H171.81V315H160.419ZM80.6774 315V304.293H92.0691V315H80.6774ZM0.936096 315V304.293H12.3277V315H0.936096Z" fill="#D8D8DE" fill-opacity="0.75"/>
<path fill-rule="evenodd" clip-rule="evenodd" d="M718.672 391V380.293H730.064V391H718.672ZM638.931 391V380.293H650.323V391H638.931ZM559.19 391V380.293H570.581V391H559.19ZM479.448 391V380.293H490.84V391H479.448ZM399.707 391V380.293H411.098V391H399.707ZM240.224 391V380.293H251.616V391H240.224ZM160.483 391V380.293H171.874V391H160.483ZM80.7413 391V380.293H92.133V391H80.7413ZM1 391V380.293H12.3916V391H1Z" fill="#D8D8DE" fill-opacity="0.75"/>
<path fill-rule="evenodd" clip-rule="evenodd" d="M718.736 467V456.293H730.128V467H718.736ZM638.995 467V456.293H650.386V467H638.995ZM559.253 467V456.293H570.645V467H559.253ZM479.512 467V456.293H490.904V467H479.512ZM399.771 467V456.293H411.162V467H399.771ZM240.288 467V456.293H251.68V467H240.288ZM160.547 467V456.293H171.938V467H160.547ZM80.8052 467V456.293H92.1969V467H80.8052ZM1.0639 467V456.293H12.4555V467H1.0639Z" fill="#D8D8DE" fill-opacity="0.75"/>
<path fill-rule="evenodd" clip-rule="evenodd" d="M718.608 239V228.293H730V239H718.608ZM638.867 239V228.293H650.259V239H638.867ZM559.126 239V228.293H570.517V239H559.126ZM479.384 239V228.293H490.776V239H479.384ZM319.902 239V228.293H331.293V239H319.902ZM240.16 239V228.293H251.552V239H240.16ZM160.419 239V228.293H171.81V239H160.419ZM80.6774 239V228.293H92.0691V239H80.6774ZM0.936096 239V228.293H12.3277V239H0.936096Z" fill="#D8D8DE" fill-opacity="0.75"/>
<path fill-rule="evenodd" clip-rule="evenodd" d="M718.608 163V152.293H730V163H718.608ZM638.867 163V152.293H650.259V163H638.867ZM559.126 163V152.293H570.517V163H559.126ZM479.384 163V152.293H490.776V163H479.384ZM399.643 163V152.293H411.035V163H399.643ZM319.902 163V152.293H331.293V163H319.902ZM240.16 163V152.293H251.552V163H240.16ZM160.419 163V152.293H171.81V163H160.419ZM80.6774 163V152.293H92.0691V163H80.6774ZM0.936096 163V152.293H12.3277V163H0.936096Z" fill="#D8D8DE" fill-opacity="0.75"/>
<path fill-rule="evenodd" clip-rule="evenodd" d="M718.608 87V76.293H730V87H718.608ZM638.867 87V76.293H650.259V87H638.867ZM479.384 87V76.293H490.776V87H479.384ZM399.643 87V76.293H411.035V87H399.643ZM319.902 87V76.293H331.293V87H319.902ZM240.16 87V76.293H251.552V87H240.16ZM160.419 87V76.293H171.81V87H160.419ZM80.6774 87V76.293H92.0691V87H80.6774ZM0.936096 87V76.293H12.3277V87H0.936096Z" fill="#D8D8DE" fill-opacity="0.75"/>
<path fill-rule="evenodd" clip-rule="evenodd" d="M718.608 11.3206V0.613532H730V11.3206H718.608ZM638.867 11.3206V0.613532H650.259V11.3206H638.867ZM559.126 11.3206V0.613532H570.517V11.3206H559.126ZM479.384 11.3206V0.613532H490.776V11.3206H479.384ZM399.643 11.3206V0.613532H411.035V11.3206H399.643ZM319.902 11.3206V0.613532H331.293V11.3206H319.902ZM240.16 11.3206V0.613532H251.552V11.3206H240.16ZM80.6774 11.3206V0.613532H92.0691V11.3206H80.6774ZM0.936096 11.3206V0.613532H12.3277V11.3206H0.936096Z" fill="#D8D8DE" fill-opacity="0.75"/>
</svg>
