<svg width="60" height="39" viewBox="0 0 60 39" fill="none" xmlns="http://www.w3.org/2000/svg">
<path d="M45.6677 17.9908L31.1994 22.5531C30.7961 22.6791 30.3928 22.7295 29.9895 22.7295C29.5862 22.7295 29.1829 22.6791 28.7796 22.5531L14.3113 17.9908L13.8576 25.9559C13.656 29.5099 21.0918 32.4086 29.9895 32.4086C38.8872 32.4086 46.323 29.5099 46.1214 25.9559L45.6677 17.9908ZM59.0269 9.82402C59.0269 9.47114 58.8 9.16867 58.4723 9.04263L30.2416 0.170106C30.1407 0.1449 30.0651 0.1449 29.9895 0.1449C29.9139 0.1449 29.8383 0.1449 29.7374 0.170106L1.50667 9.04263C1.17899 9.16867 0.952133 9.47114 0.952133 9.82402C0.952133 10.1769 1.17899 10.4794 1.50667 10.6054L9.90028 13.2268C8.3375 15.4198 7.58132 18.5957 7.43009 21.5448C6.47226 22.0994 5.79169 23.1328 5.79169 24.3427C5.79169 25.477 6.37143 26.46 7.25364 27.0397L5.79169 37.954C5.76649 38.1808 5.84211 38.4077 5.99334 38.5841C6.14458 38.7606 6.37143 38.8614 6.59829 38.8614H11.4378C11.6647 38.8614 11.8916 38.7606 12.0428 38.5841C12.194 38.4077 12.2696 38.1808 12.2444 37.954L10.7825 27.0397C11.6647 26.46 12.2444 25.477 12.2444 24.3427C12.2444 23.158 11.6143 22.1498 10.6565 21.5952C10.8581 18.1924 11.8664 15.4198 13.3031 14.2855L29.7374 19.4779C29.8383 19.5031 29.9139 19.5031 29.9895 19.5031C30.0651 19.5031 30.1407 19.5031 30.2416 19.4779L58.4723 10.6054C58.8 10.4794 59.0269 10.1769 59.0269 9.82402Z" fill="#41ACFF"/>
</svg>
