<svg width="50" height="36" viewBox="0 0 50 36" fill="none" xmlns="http://www.w3.org/2000/svg">
<path d="M49.1084 25.9559C49.1084 21.3684 45.9072 17.5371 41.6222 16.5288C42.2775 15.5206 42.6556 14.3359 42.6556 13.0504C42.6556 9.49634 39.7569 6.59765 36.2029 6.59765C34.5897 6.59765 33.1277 7.17739 32.0187 8.16042C30.0778 3.44689 25.4651 0.1449 20.071 0.1449C12.9377 0.1449 7.16552 5.91709 7.16552 13.0504C7.16552 13.4033 7.19072 13.7814 7.21593 14.1343C3.38461 15.9239 0.712769 19.8308 0.712769 24.3427C0.712769 30.5686 5.77918 35.635 12.0051 35.635H39.4293C44.7729 35.635 49.1084 31.2996 49.1084 25.9559Z" fill="#41ACFF"/>
</svg>
