<svg width="40" height="39" viewBox="0 0 40 39" fill="none" xmlns="http://www.w3.org/2000/svg">
<path d="M26.6246 19.5031C26.6246 23.0572 23.726 25.9559 20.1719 25.9559C16.6178 25.9559 13.7192 23.0572 13.7192 19.5031C13.7192 15.9491 16.6178 13.0504 20.1719 13.0504C23.726 13.0504 26.6246 15.9491 26.6246 19.5031ZM39.5301 16.7557C39.5301 16.3272 39.2277 15.9239 38.7992 15.8483L34.1865 15.1425C33.9344 14.3107 33.5815 13.4789 33.153 12.6723C34.01 11.4876 34.9426 10.3786 35.7996 9.21908C35.9257 9.04263 36.0013 8.86619 36.0013 8.63934C36.0013 8.43769 35.9509 8.23604 35.8249 8.0848C34.7662 6.59765 33.0018 5.03487 31.6659 3.79978C31.4894 3.64854 31.2626 3.54772 31.0357 3.54772C30.8088 3.54772 30.582 3.62334 30.4308 3.77457L26.8515 6.47162C26.1205 6.09353 25.3643 5.79105 24.583 5.53899L23.8772 0.901083C23.8268 0.47258 23.4235 0.1449 22.9698 0.1449H17.374C16.9203 0.1449 16.5674 0.447374 16.4666 0.85067C16.0633 2.36303 15.9121 4.00143 15.7356 5.53899C14.9542 5.79105 14.1729 6.11873 13.4419 6.49682L9.96345 3.79978C9.7618 3.64854 9.53495 3.54772 9.3081 3.54772C8.45109 3.54772 5.04828 7.2278 4.44333 8.0596C4.3173 8.23604 4.21648 8.41248 4.21648 8.63934C4.21648 8.86619 4.3173 9.06784 4.46854 9.24428C5.40116 10.3786 6.30858 11.5128 7.16558 12.7227C6.76229 13.4789 6.43461 14.2351 6.18255 15.0417L1.49422 15.7474C1.11613 15.8231 0.81366 16.2768 0.81366 16.6549V22.2506C0.81366 22.6791 1.11613 23.0824 1.54463 23.158L6.15734 23.8386C6.4094 24.6956 6.76229 25.5274 7.19079 26.334C6.33378 27.5187 5.40116 28.6277 4.54415 29.7872C4.41812 29.9636 4.34251 30.1401 4.34251 30.3669C4.34251 30.5686 4.39292 30.7702 4.51895 30.9467C5.5776 32.4086 7.34202 33.9714 8.67795 35.1813C8.85439 35.3577 9.08124 35.4586 9.3081 35.4586C9.53495 35.4586 9.7618 35.3829 9.93825 35.2317L13.4923 32.5347C14.2233 32.9128 14.9795 33.2152 15.7608 33.4673L16.4666 38.1052C16.517 38.5337 16.9203 38.8614 17.374 38.8614H22.9698C23.4235 38.8614 23.7764 38.5589 23.8772 38.1556C24.2805 36.6433 24.4317 35.0049 24.6082 33.4673C25.3896 33.2152 26.1709 32.8876 26.9019 32.5095L30.3803 35.2317C30.582 35.3577 30.8088 35.4586 31.0357 35.4586C31.8927 35.4586 35.2955 31.7533 35.9005 30.9467C36.0517 30.7702 36.1273 30.5938 36.1273 30.3669C36.1273 30.1401 36.0265 29.9132 35.8753 29.7368C34.9426 28.6025 34.0352 27.4935 33.1782 26.2584C33.5815 25.5274 33.884 24.7712 34.1613 23.9646L38.8244 23.2588C39.2277 23.1832 39.5301 22.7295 39.5301 22.3514V16.7557Z" fill="#41ACFF"/>
</svg>
