<svg width="46" height="46" viewBox="0 0 46 46" fill="none" xmlns="http://www.w3.org/2000/svg">
<path fill-rule="evenodd" clip-rule="evenodd" d="M5.75 9.58333H9.58333V5.75C7.475 5.75 5.75 7.475 5.75 9.58333ZM5.75 24.9167H9.58333V21.0833H5.75V24.9167ZM13.4167 40.25H17.25V36.4167H13.4167V40.25ZM5.75 17.25H9.58333V13.4167H5.75V17.25ZM24.9167 5.75H21.0833V9.58333H24.9167V5.75ZM36.4167 5.75V9.58333H40.25C40.25 7.475 38.525 5.75 36.4167 5.75ZM9.58333 40.25V36.4167H5.75C5.75 38.525 7.475 40.25 9.58333 40.25ZM5.75 32.5833H9.58333V28.75H5.75V32.5833ZM17.25 5.75H13.4167V9.58333H17.25V5.75ZM21.0833 40.25H24.9167V36.4167H21.0833V40.25ZM36.4167 24.9167H40.25V21.0833H36.4167V24.9167ZM36.4167 40.25C38.525 40.25 40.25 38.525 40.25 36.4167H36.4167V40.25ZM36.4167 17.25H40.25V13.4167H36.4167V17.25ZM36.4167 32.5833H40.25V28.75H36.4167V32.5833ZM28.75 40.25H32.5833V36.4167H28.75V40.25ZM28.75 9.58333H32.5833V5.75H28.75V9.58333Z" fill="#081E57"/>
<path fill-rule="evenodd" clip-rule="evenodd" d="M32.5833 13.4166V32.5833H13.4167V13.4166H32.5833ZM28.75 17.25H17.25V28.75H28.75V17.25Z" fill="#41ACFF"/>
</svg>
