<svg width="100" height="100" viewBox="0 0 100 100" fill="none" xmlns="http://www.w3.org/2000/svg">
<rect width="100" height="100" rx="20" fill="white"/>
<path d="M61.6735 27.4594C58.0587 28.1705 54.7106 30.2445 52.5033 33.2075C50.2959 36.1704 49.2737 39.9777 49.7181 43.6517C50.4589 49.6665 54.8143 54.5108 57.3328 60.0219C58.9476 57.2515 60.5476 54.4812 62.1624 51.7109C62.7105 50.7627 63.2587 49.5183 62.592 48.6294C61.5994 47.3258 60.6068 45.9776 60.0291 44.4517C59.4513 42.911 59.3476 41.1184 60.1476 39.6814C60.9624 38.1852 62.6365 37.3111 64.3105 37.0148C65.9845 36.7185 67.703 36.9407 69.3919 37.1481C70.3252 37.2667 71.0215 36.3333 71.4956 35.5185C73.1252 32.7038 74.7696 29.9038 76.3992 27.089C73.4511 27.089 70.503 27.089 67.5549 27.0742C65.5846 27.089 63.6142 27.089 61.6735 27.4594Z" fill="#356DFE"/>
<path d="M36.622 28.1555C36.3998 27.7704 36.1628 27.3704 35.7628 27.163C35.4369 27 35.0517 27 34.6813 27C31.1258 27 27.5555 27.0148 24 27.0148C32.7554 42.1109 41.4812 57.2366 50.1774 72.3771C51.9699 69.2512 53.7773 66.1253 55.5699 62.9995C55.7328 62.7032 55.9106 62.3921 55.9106 62.0513C55.9106 61.7106 55.7328 61.3995 55.5699 61.1032C49.2589 50.1256 42.933 39.1331 36.622 28.1555Z" fill="#356DFE"/>
</svg>
