<svg width="50" height="51" viewBox="0 0 50 51" fill="none" xmlns="http://www.w3.org/2000/svg">
<path d="M16.6667 13.5454C16.6667 15.2713 15.2676 16.6704 13.5417 16.6704C11.8158 16.6704 10.4167 15.2713 10.4167 13.5454C10.4167 11.8195 11.8158 10.4204 13.5417 10.4204C15.2676 10.4204 16.6667 11.8195 16.6667 13.5454Z" fill="#081E57"/>
<path d="M22.9167 21.8787C20.6155 21.8787 18.75 23.7989 18.75 26.1678C18.75 27.1335 18.8129 28.306 19.8806 29.5882C20.9483 30.8705 27.0833 36.462 27.0833 36.462C27.0833 36.462 33.2183 30.8705 34.286 29.5882C35.3538 28.306 35.4167 27.1335 35.4167 26.1678C35.4167 23.7989 33.5513 21.8787 31.25 21.8787C28.9488 21.8787 27.0833 23.7989 27.0833 26.1678C27.0833 23.7989 25.2179 21.8787 22.9167 21.8787Z" fill="#0466C8"/>
<path fill-rule="evenodd" clip-rule="evenodd" d="M6.25 23.0991V8.337C6.25 7.18641 7.18275 6.25366 8.33333 6.25366H23.0954C23.6479 6.25366 24.1779 6.47316 24.5685 6.86385L43.3185 25.6139C44.1321 26.4274 44.1321 27.7466 43.3185 28.5601L28.5565 43.3222C27.7429 44.1357 26.4237 44.1357 25.6102 43.3222L6.86019 24.5722C6.4695 24.1816 6.25 23.6516 6.25 23.0991Z" stroke="#081E57" stroke-width="5.55556"/>
</svg>
