<svg width="35" height="35" viewBox="0 0 35 35" fill="none" xmlns="http://www.w3.org/2000/svg">
<path d="M11.202 16.1315C10.34 15.8833 9.47792 15.7574 8.63939 15.7574C7.34451 15.7574 6.26403 16.0533 5.42623 16.4157C6.23393 13.4588 8.17423 8.35672 12.0394 7.78215C12.3974 7.72892 12.6907 7.47009 12.7884 7.12168L13.6331 4.10016C13.7044 3.84464 13.6622 3.57112 13.5164 3.34937C13.3706 3.12762 13.1364 2.97967 12.8739 2.94369C12.5887 2.90477 12.2979 2.88495 12.0097 2.88495C7.37021 2.88495 2.77552 7.72745 0.836687 14.6611C-0.301429 18.729 -0.635154 24.8447 2.16828 28.6941C3.73705 30.8481 6.02576 31.9983 8.97091 32.1132C8.98303 32.1136 8.99478 32.114 9.00689 32.114C12.6408 32.114 15.8631 29.6667 16.8434 26.1631C17.4289 24.0686 17.1642 21.872 16.0974 19.9765C15.0418 18.1023 13.3035 16.7362 11.202 16.1315Z" fill="#0466C8" fill-opacity="0.25"/>
<path d="M33.9493 19.9769C32.8937 18.1023 31.1554 16.7362 29.0539 16.1315C28.1919 15.8833 27.3298 15.7574 26.4917 15.7574C25.1968 15.7574 24.1159 16.0533 23.2781 16.4157C24.0858 13.4588 26.0261 8.35672 29.8917 7.78215C30.2496 7.72892 30.5426 7.47009 30.6406 7.12168L31.4854 4.10016C31.5566 3.84464 31.5144 3.57112 31.3687 3.34937C31.2233 3.12762 30.9891 2.97967 30.7262 2.94369C30.4413 2.90477 30.1505 2.88495 29.8619 2.88495C25.2225 2.88495 20.6278 7.72745 18.6886 14.6611C17.5508 18.729 17.2171 24.8447 20.0209 28.6948C21.5893 30.8485 23.8784 31.9991 26.8232 32.1136C26.8353 32.114 26.847 32.1143 26.8595 32.1143C30.4931 32.1143 33.7158 29.667 34.696 26.1635C35.2808 24.069 35.0158 21.872 33.9493 19.9769Z" fill="#0466C8" fill-opacity="0.25"/>
</svg>
