<svg width="194" height="45" viewBox="0 0 194 45" fill="none" xmlns="http://www.w3.org/2000/svg">
<path d="M68.2729 34L59.8468 10.96H64.3561L70.8731 29.6883L77.423 10.96H81.8665L73.4404 34H68.2729ZM90.077 34.395C88.4313 34.395 86.9721 34.0439 85.6994 33.3417C84.4268 32.6396 83.4284 31.6521 82.7042 30.3795C81.9801 29.1068 81.6181 27.6366 81.6181 25.9689C81.6181 24.2793 81.9692 22.7763 82.6713 21.4597C83.3954 20.1431 84.3829 19.1228 85.6336 18.3987C86.9063 17.6526 88.3984 17.2796 90.11 17.2796C91.7118 17.2796 93.1271 17.6307 94.3559 18.3328C95.5847 19.035 96.5392 20.0005 97.2194 21.2293C97.9216 22.4361 98.2727 23.7856 98.2727 25.2777C98.2727 25.5191 98.2617 25.7715 98.2398 26.0348C98.2398 26.2981 98.2288 26.5724 98.2069 26.8576H85.7982C85.886 28.1303 86.3248 29.1287 87.1148 29.8528C87.9266 30.5769 88.9031 30.939 90.0441 30.939C90.8999 30.939 91.613 30.7525 92.1836 30.3795C92.776 29.9845 93.2149 29.4798 93.5001 28.8654H97.779C97.4718 29.8967 96.9561 30.8403 96.232 31.696C95.5298 32.5299 94.6521 33.1881 93.5989 33.6709C92.5676 34.1536 91.3936 34.395 90.077 34.395ZM90.11 20.7027C89.0786 20.7027 88.168 20.9989 87.3781 21.5913C86.5881 22.1619 86.0834 23.0396 85.864 24.2245H93.9938C93.928 23.1493 93.533 22.2935 92.8089 21.6572C92.0848 21.0208 91.1852 20.7027 90.11 20.7027ZM101.415 34V17.6745H105.134L105.463 20.4393C105.968 19.4739 106.692 18.7059 107.636 18.1353C108.601 17.5648 109.731 17.2796 111.026 17.2796C113.044 17.2796 114.613 17.9159 115.732 19.1886C116.852 20.4613 117.411 22.3264 117.411 24.784V34H113.198V25.179C113.198 23.7747 112.913 22.6995 112.342 21.9534C111.772 21.2073 110.883 20.8343 109.676 20.8343C108.491 20.8343 107.515 21.2512 106.747 22.0851C106.001 22.9189 105.628 24.0819 105.628 25.574V34H101.415ZM131.571 34.395C129.245 34.395 127.248 33.9013 125.581 32.9139C123.913 31.9045 122.629 30.5111 121.73 28.7337C120.83 26.9344 120.38 24.8608 120.38 22.5129C120.38 20.1651 120.83 18.0915 121.73 16.2921C122.629 14.4928 123.913 13.0885 125.581 12.0791C127.248 11.0697 129.245 10.5651 131.571 10.5651C134.336 10.5651 136.596 11.2563 138.351 12.6387C140.129 13.9991 141.237 15.9191 141.676 18.3987H137.035C136.749 17.1479 136.135 16.1715 135.191 15.4693C134.27 14.7452 133.041 14.3831 131.505 14.3831C129.377 14.3831 127.709 15.1072 126.502 16.5555C125.295 18.0037 124.692 19.9895 124.692 22.5129C124.692 25.0364 125.295 27.0222 126.502 28.4704C127.709 29.8967 129.377 30.6099 131.505 30.6099C133.041 30.6099 134.27 30.2807 135.191 29.6224C136.135 28.9422 136.749 28.0096 137.035 26.8247H141.676C141.237 29.1945 140.129 31.0487 138.351 32.3872C136.596 33.7257 134.336 34.395 131.571 34.395ZM151.027 34.395C148.986 34.395 147.406 33.7587 146.287 32.486C145.19 31.2133 144.641 29.3481 144.641 26.8905V17.6745H148.822V26.4956C148.822 27.8999 149.107 28.9751 149.677 29.7212C150.248 30.4672 151.148 30.8403 152.376 30.8403C153.539 30.8403 154.494 30.4233 155.24 29.5895C156.008 28.7557 156.392 27.5927 156.392 26.1006V17.6745H160.605V34H156.886L156.556 31.2352C156.052 32.2007 155.317 32.9687 154.351 33.5392C153.408 34.1097 152.3 34.395 151.027 34.395ZM164.528 34V17.6745H168.281L168.676 20.7356C169.268 19.6823 170.069 18.8485 171.078 18.2341C172.11 17.5977 173.317 17.2796 174.699 17.2796V21.723H173.514C172.592 21.723 171.77 21.8656 171.045 22.1509C170.321 22.4361 169.751 22.9299 169.334 23.632C168.939 24.3342 168.741 25.3107 168.741 26.5614V34H164.528ZM184.82 34.395C183.174 34.395 181.715 34.0439 180.442 33.3417C179.17 32.6396 178.171 31.6521 177.447 30.3795C176.723 29.1068 176.361 27.6366 176.361 25.9689C176.361 24.2793 176.712 22.7763 177.414 21.4597C178.138 20.1431 179.126 19.1228 180.377 18.3987C181.649 17.6526 183.141 17.2796 184.853 17.2796C186.455 17.2796 187.87 17.6307 189.099 18.3328C190.328 19.035 191.282 20.0005 191.962 21.2293C192.665 22.4361 193.016 23.7856 193.016 25.2777C193.016 25.5191 193.005 25.7715 192.983 26.0348C192.983 26.2981 192.972 26.5724 192.95 26.8576H180.541C180.629 28.1303 181.068 29.1287 181.858 29.8528C182.67 30.5769 183.646 30.939 184.787 30.939C185.643 30.939 186.356 30.7525 186.927 30.3795C187.519 29.9845 187.958 29.4798 188.243 28.8654H192.522C192.215 29.8967 191.699 30.8403 190.975 31.696C190.273 32.5299 189.395 33.1881 188.342 33.6709C187.311 34.1536 186.137 34.395 184.82 34.395ZM184.853 20.7027C183.822 20.7027 182.911 20.9989 182.121 21.5913C181.331 22.1619 180.826 23.0396 180.607 24.2245H188.737C188.671 23.1493 188.276 22.2935 187.552 21.6572C186.828 21.0208 185.928 20.7027 184.853 20.7027Z" fill="white"/>
<path d="M37.3261 0.455038C33.7447 1.15958 30.4275 3.2145 28.2405 6.1501C26.0534 9.0857 25.0407 12.8579 25.481 16.4981C26.2149 22.4574 30.5302 27.2571 33.0255 32.7173C34.6254 29.9725 36.2106 27.2277 37.8105 24.4829C38.3536 23.5435 38.8967 22.3106 38.2362 21.4299C37.2528 20.1382 36.2693 18.8025 35.6969 17.2907C35.1244 15.7642 35.0217 13.9881 35.8143 12.5644C36.6216 11.0819 38.2802 10.2159 39.9388 9.92234C41.5974 9.62878 43.3001 9.84895 44.9734 10.0544C45.8981 10.1719 46.588 9.24716 47.0576 8.43987C48.6722 5.65105 50.3015 2.87691 51.9161 0.0880878C48.9951 0.0880878 46.0742 0.088088 43.1533 0.07341C41.2011 0.088088 39.249 0.0880878 37.3261 0.455038Z" fill="white"/>
<path d="M12.5057 1.14491C12.2855 0.763285 12.0506 0.36698 11.6543 0.161488C11.3314 3.02901e-05 10.9498 3.05176e-05 10.5828 3.05176e-05C7.06011 3.05176e-05 3.52272 0.0147083 0 0.0147083C8.67469 14.9716 17.32 29.9578 25.936 44.9587C27.7121 41.8617 29.5028 38.7646 31.2788 35.6676C31.4403 35.374 31.6164 35.0658 31.6164 34.7282C31.6164 34.3906 31.4403 34.0823 31.2788 33.7888C25.026 22.9124 18.7585 12.0213 12.5057 1.14491Z" fill="white"/>
</svg>
