<svg width="35" height="35" viewBox="0 0 35 35" fill="none" xmlns="http://www.w3.org/2000/svg">
<path d="M23.798 16.1315C24.66 15.8833 25.522 15.7574 26.3606 15.7574C27.6555 15.7574 28.7359 16.0533 29.5737 16.4157C28.766 13.4588 26.8257 8.35672 22.9606 7.78215C22.6026 7.72892 22.3093 7.47009 22.2116 7.12168L21.3668 4.10016C21.2956 3.84464 21.3378 3.57112 21.4836 3.34937C21.6293 3.12762 21.8636 2.97967 22.1261 2.94369C22.4113 2.90477 22.7021 2.88495 22.9903 2.88495C27.6298 2.88495 32.2244 7.72745 34.1633 14.6611C35.3014 18.729 35.6351 24.8447 32.8317 28.6941C31.2629 30.8481 28.9742 31.9983 26.0291 32.1132C26.0169 32.1136 26.0052 32.114 25.9931 32.114C22.3592 32.114 19.1368 29.6667 18.1566 26.1631C17.571 24.0686 17.8357 21.872 18.9026 19.9765C19.9581 18.1023 21.6965 16.7362 23.798 16.1315Z" fill="#0466C8" fill-opacity="0.25"/>
<path d="M1.05077 19.9769C2.10628 18.1023 3.84466 16.7362 5.94614 16.1315C6.80817 15.8833 7.6702 15.7574 8.50837 15.7574C9.80325 15.7574 10.8841 16.0533 11.7219 16.4157C10.9142 13.4588 8.9739 8.35672 5.10834 7.78215C4.75039 7.72892 4.45741 7.47009 4.35939 7.12168L3.51461 4.10016C3.44339 3.84464 3.48561 3.57112 3.63136 3.34937C3.77674 3.12762 4.01098 2.97967 4.27384 2.94369C4.55874 2.90477 4.84951 2.88495 5.13808 2.88495C9.77755 2.88495 14.3722 7.72745 16.3114 14.6611C17.4492 18.729 17.7829 24.8447 14.9791 28.6948C13.4107 30.8485 11.1216 31.9991 8.17685 32.1136C8.16473 32.114 8.15298 32.1143 8.1405 32.1143C4.50697 32.1143 1.28427 29.667 0.304024 26.1635C-0.280821 24.069 -0.0157509 21.872 1.05077 19.9769Z" fill="#0466C8" fill-opacity="0.25"/>
</svg>
